<?xml version="1.0" encoding="UTF-8" standalone="no" ?>
<!DOCTYPE svg PUBLIC "-//W3C//DTD SVG 1.1//EN" "http://www.w3.org/Graphics/SVG/1.1/DTD/svg11.dtd">
<svg xmlns="http://www.w3.org/2000/svg" xmlns:xlink="http://www.w3.org/1999/xlink" version="1.1" width="812" height="812" viewBox="0 0 1080 1080" xml:space="preserve">
<desc>Created with Fabric.js 6.5.3</desc>
<defs>
</defs>
<g transform="matrix(67.4916 0 0 67.4916 539.7458 539.7458)"  >
<path style="stroke: none; stroke-width: 1; stroke-dasharray: none; stroke-linecap: butt; stroke-dashoffset: 0; stroke-linejoin: miter; stroke-miterlimit: 4; fill: rgb(255,255,255); fill-rule: nonzero; opacity: 1;"  transform=" translate(-7.999, -8)" d="M 16 8.049 C 16 3.603 12.418 -0.001 8 -0.001 C 3.58 0 -0.002 3.603 -0.002 8.05 C -0.002 12.067 2.924 15.397 6.748 16.001 L 6.748 10.376 L 4.718 10.376 L 4.718 8.05 L 6.75 8.05 L 6.75 6.275 C 6.75 4.258 7.945 3.144 9.772 3.144 C 10.648 3.144 11.563 3.301 11.563 3.301 L 11.563 5.281 L 10.554 5.281 C 9.561 5.281 9.251 5.902 9.251 6.539 L 9.251 8.049 L 11.469 8.049 L 11.115 10.375 L 9.25 10.375 L 9.25 16 C 13.074 15.396 16 12.066 16 8.049" stroke-linecap="round" />
</g>
</svg>